<?xml version="1.0" standalone="no"?>
<!DOCTYPE svg PUBLIC "-//W3C//DTD SVG 1.1//EN" "http://www.w3.org/Graphics/SVG/1.1/DTD/svg11.dtd" >
<!--
2013-9-30: Created.
-->
<svg>
<metadata>
Created by iconfont
</metadata>
<defs>

<font id="iconfont" horiz-adv-x="1024" >
  <font-face
    font-family="iconfont"
    font-weight="500"
    font-stretch="normal"
    units-per-em="1024"
    ascent="896"
    descent="-128"
  />
    <missing-glyph />
    
    <glyph glyph-name="tongji" unicode="&#58993;" d="M224.9 69.3l-69.6 81.8c-4.2 4.9-3.6 12.3 1.3 16.5l626 532.3c4.9 4.2 12.3 3.6 16.5-1.3l69.6-81.8c4.2-4.9 3.6-12.3-1.3-16.5L241.3 68c-4.9-4.2-12.2-3.6-16.4 1.3zM859 750.6v-733.1h-87.6V750.6H859m12.9 78.3H758.4c-36.1 0-65.4-29.3-65.4-65.4v-759c0-36.1 29.3-65.4 65.4-65.4h113.5c36.1 0 65.4 29.3 65.4 65.4v759c0 36.1-29.3 65.4-65.4 65.4zM252.7 261.5v-244H165v244h87.7m12.9 78.3H152.1c-36.1 0-65.4-29.3-65.4-65.4v-269.9c0-36.1 29.3-65.4 65.4-65.4h113.5c36.1 0 65.4 29.3 65.4 65.4V274.4c0 36.1-29.3 65.4-65.4 65.4zM542.2 591.5v-574h-87.6v574h87.6m13 78.3H441.7c-36.1 0-65.4-29.3-65.4-65.4v-599.9c0-36.1 29.3-65.4 65.4-65.4h113.5c36.1 0 65.4 29.3 65.4 65.4V604.4c0 36.1-29.3 65.4-65.4 65.4z"  horiz-adv-x="1024" />

    
    <glyph glyph-name="biaoqian" unicode="&#58994;" d="M565-46.4c-7.1 0-13.8 2.8-18.8 7.9l-451 457.2c-5 5.1-7.8 12-7.8 19.1l1.2 349.9c0.1 14.8 11.9 26.8 26.5 26.8H459c7 0 13.8-2.8 18.8-7.9l451-457.2c10.4-10.5 10.4-27.5 0-38L583.7-38.5c-4.9-5.1-11.7-7.9-18.7-7.9zM140.5 448.8L565 18.5l307.6 311.8-424.5 430.3H141.7l-1.2-311.8zM780.2 311.7L585.8 117.4c-8.5-8.5-22.3-8.5-30.8 0L425.4 247c-8.5 8.5-8.5 22.3 0 30.8l194.3 194.3c8.5 8.5 22.3 8.5 30.8 0l129.6-129.6c8.6-8.5 8.6-22.3 0.1-30.8zM358.4 413.6c-69.5 0-126 56.5-126 126s56.5 126 126 126 126-56.5 126-126-56.5-126-126-126z m0 192c-36.4 0-66-29.6-66-66s29.6-66 66-66 66 29.6 66 66-29.6 66-66 66z"  horiz-adv-x="1024" />

    
    <glyph glyph-name="tongji1" unicode="&#58995;" d="M809.7 354.5c0-1.1 0.1-2.2 0.1-3.3 0-187.2-152.3-339.5-339.5-339.5S130.8 164 130.8 351.2s152.3 339.5 339.5 339.5h0.7v70.5h-0.7c-226.1 0-410-183.9-410-410s183.9-410 410-410 410 183.9 410 410c0 1.1-0.1 2.2-0.1 3.3h-70.5zM963 441.5c-5.7 96.7-45.3 191.8-119.1 265.6-77.8 77.8-179.4 117.6-281.6 119.7-23.6 0.5-47.2-1-70.5-4.6v-416c0-19.5 15.8-35.3 35.3-35.3h434.1c2.5 23.5 3.2 47.1 1.8 70.6z m-400.7 0V756.3c84.1-2 167.7-35 231.7-99.1 60-60 92.7-137 98.3-215.7h-330zM585.4 461.7h273.3c-19.2 139.9-132.1 249.9-273.3 264.7v-264.7z"  horiz-adv-x="1024" />

    
    <glyph glyph-name="shijian" unicode="&#58996;" d="M512.9 392.6m-184.8 0a184.8 184.8 0 1 1 369.6 0 184.8 184.8 0 1 1-369.6 0ZM512 816.7C273.4 816.7 79.3 622.6 79.3 384S273.4-48.7 512-48.7 944.7 145.4 944.7 384 750.6 816.7 512 816.7z m0-790.9c-197.5 0-358.2 160.7-358.2 358.2S314.5 742.2 512 742.2 870.2 581.5 870.2 384 709.5 25.8 512 25.8zM753.7 428.5H548.5V651.8c0 20.6-16.7 37.2-37.2 37.2S474 672.4 474 651.8v-260.6c0-20.6 16.7-37.2 37.2-37.2h242.5c20.6 0 37.2 16.7 37.2 37.2s-16.6 37.3-37.2 37.3z"  horiz-adv-x="1024" />

    
    <glyph glyph-name="bianji" unicode="&#58997;" d="M736.7 621.1l162.7-162.7L575 134l-176.4-11.3 13.5 173.9zM893.7 23.4H130.3c-21.9 0-39.6-17.7-39.6-39.6 0-21.9 17.7-39.6 39.6-39.6h763.4c21.9 0 39.6 17.7 39.6 39.6 0 21.8-17.7 39.6-39.6 39.6zM671 711.8l133.5-133.5L392.3 166 247 156.7l11.1 142.2L671 711.8m0 112L181.4 334.2 161 71.8 427.1 89l489.4 489.4L671 823.8z"  horiz-adv-x="1024" />

    
    <glyph glyph-name="pc" unicode="&#58998;" d="M766.4 210.1H257.6c-3.5 0-6.4 2.9-6.4 6.4v335c0 3.5 2.9 6.4 6.4 6.4h508.9c3.5 0 6.4-2.9 6.4-6.4v-335c-0.1-3.5-2.9-6.4-6.5-6.4zM742-45.3H282c-21.7 0-39.3 17.6-39.3 39.3 0 21.7 17.6 39.3 39.3 39.3h460c21.7 0 39.3-17.6 39.3-39.3 0-21.7-17.6-39.3-39.3-39.3zM868.8 820.8c-3.8 0.4-7.6 0.6-11.4 0.6H166.6c-3.9 0-7.7-0.2-11.4-0.6-56.3-5.7-100.4-53.4-100.4-111.2v-511.2c0-61.6 50.1-111.8 111.8-111.8h690.8c61.6 0 111.8 50.1 111.8 111.8V709.6c0 57.8-44.1 105.5-100.4 111.2z m21.8-189.6l-0.1-88.1h0.1v-344.8c0-18.3-14.9-33.3-33.3-33.3H166.6c-18.3 0-33.3 14.9-33.3 33.3V709.6c0 14.9 9.8 27.5 23.4 31.8 3.1 1 6.4 1.5 9.9 1.5h690.8c3.4 0 6.8-0.5 9.9-1.5 13.5-4.2 23.4-16.9 23.4-31.8v-78.4z"  horiz-adv-x="1024" />

    
    <glyph glyph-name="fenxiang" unicode="&#58999;" d="M345.5 348.4m-126.7 0a126.7 126.7 0 1 1 253.4 0 126.7 126.7 0 1 1-253.4 0ZM754.1 221.4c-38.4 0-73.1-16.1-97.5-41.9L395 338.4c5.5 14.5 8.5 30.1 8.5 46.4 0 16.9-3.2 33.2-9.1 48.1l265.4 152.4c24.2-23.9 57.6-38.7 94.3-38.7 73.7 0 133.6 59.3 133.6 132.3 0 73-59.9 132.3-133.6 132.3-73.7 0-133.6-59.3-133.6-132.3 0-17.2 3.3-33.6 9.4-48.6L364.7 478c-24.2 24.2-57.8 39.2-94.8 39.2-73.7 0-133.6-59.3-133.6-132.3 0-73 59.9-132.3 133.6-132.3 37.7 0 71.8 15.5 96.1 40.5l262.3-159.4c-5-13.9-7.8-28.9-7.8-44.6 0-72.9 59.9-132.3 133.6-132.3 73.7 0 133.6 59.4 133.6 132.3 0 73-59.9 132.3-133.6 132.3z m0 536.1c43.8 0 79.4-35.2 79.4-78.6 0-43.3-35.6-78.6-79.4-78.6-43.8 0-79.4 35.2-79.4 78.6 0 43.3 35.6 78.6 79.4 78.6zM269.9 306.2c-43.8 0-79.4 35.2-79.4 78.6 0 43.3 35.6 78.6 79.4 78.6 25 0 47.4-11.5 61.9-29.5 0.6-1.6 1.3-3.1 2.1-4.6 1.5-2.5 3.3-4.7 5.4-6.6 6.3-11.2 9.8-24.1 9.8-37.8 0-14.4-4-27.9-10.8-39.6-0.6-0.8-1.2-1.6-1.8-2.5-0.5-0.8-1-1.7-1.4-2.5-14.3-20.6-38.2-34.1-65.2-34.1z m484.2-295.7c-43.8 0-79.4 35.2-79.4 78.6 0 13.4 3.4 26 9.4 37 0.9 1 1.7 2.1 2.4 3.2 0.9 1.4 1.6 2.8 2.2 4.3 14.3 20.6 38.3 34.1 65.3 34.1 43.8 0 79.4-35.2 79.4-78.6 0.1-43.3-35.5-78.6-79.3-78.6z"  horiz-adv-x="1024" />

    
    <glyph glyph-name="fenxiang1" unicode="&#59000;" d="M274.3 456.3h475.4v-337.6H274.3zM835.6 649.3H658c-18.4 0-33.3-16.8-33.3-37.5s14.9-37.5 33.3-37.5h177.6c15.5 0 28.2-14.3 28.2-31.8v-488.4c0-17.5-12.6-31.8-28.2-31.8H188.4c-15.5 0-28.2 14.3-28.2 31.8V542.5c0 17.5 12.6 31.8 28.2 31.8h176.9c18.4 0 33.3 16.8 33.3 37.5s-14.9 37.5-33.3 37.5H188.4c-52.2 0-94.7-47.9-94.7-106.8v-488.4c0-58.9 42.5-106.8 94.7-106.8h647.2c52.2 0 94.7 47.9 94.7 106.8V542.5c0.1 58.9-42.4 106.8-94.7 106.8zM450 665.6l28.8 32.4v-397.1c0-20.7 14.9-37.5 33.3-37.5s33.3 16.8 33.3 37.5V694.5l30.1-30.4c6.4-6.4 14.3-9.6 22.2-9.6 9.1 0 18.2 4.2 24.8 12.5 12.3 15.4 11.1 39.2-2.6 53l-90.3 91.1c-13.2 13.3-33.2 12.6-45.7-1.4l-80.8-91.1c-13-14.7-13-38.4 0-53.1 12.8-14.5 33.9-14.5 46.9 0.1z"  horiz-adv-x="1024" />

    
    <glyph glyph-name="ditu" unicode="&#59001;" d="M838.6 631.1l-173.3-44.4-199.9 50.8v-446.9l161-60.1 212.2 53.7zM937.3 771.4c-6.9 5.3-15.8 7.2-24.3 5.2l-266.9-66.9-266.9 66.9c-0.2 0-0.4 0.1-0.6 0.1-0.1 0-0.2 0-0.4 0.1-0.9 0.2-1.8 0.3-2.6 0.4-0.4 0-0.8 0.1-1.3 0.1-0.6 0-1.2 0.1-1.8 0.1-0.6 0-1.2 0-1.8-0.1-0.4 0-0.8 0-1.3-0.1-0.9-0.1-1.8-0.2-2.6-0.4-0.1 0-0.2 0-0.4-0.1-0.2 0-0.4-0.1-0.7-0.1L97.5 708.1c-12.7-3.1-21.7-14.4-21.7-27.3v-662.1c0-8.6 4-16.8 10.9-22.1 5.1-3.9 11.3-6 17.6-6 2.2 0 4.5 0.3 6.7 0.8l261.6 66.9 266.9-66.9c0.5-0.1 1-0.2 1.4-0.3 0.4-0.1 0.7-0.1 1.1-0.2a29.663 29.663 0 0 1 8.4 0c0.4 0.1 0.8 0.1 1.1 0.2 0.5 0.1 1 0.1 1.4 0.3l273.6 68.5c12.7 3.1 21.7 14.4 21.7 27.3V749.3c0 8.6-4 16.8-10.9 22.1zM344.1 109.3l-211.5-54.8V658.7l211.5 54.8v-604.2z m273.7-54.8L401 109.3V713.5l216.8-54.8v-604.2z m273.6 54.8l-216.8-54.8V658.7l216.8 54.8v-604.2z"  horiz-adv-x="1024" />

    
    <glyph glyph-name="xinxi" unicode="&#59002;" d="M377.1 359.8L350 312.7c-34.7-60.2 8.7-135.4 78.1-135.4h187c69.5 0 112.9 75.2 78.1 135.4l-28.7 49.7c-49-7.9-100.2-12.1-152.5-12.1-46.1 0.1-91.3 3.3-134.9 9.5zM443.5 474.6L413.7 423c32.2-3.6 65.1-5.4 98.3-5.4 39.4 0 78.4 2.7 116.2 7.7l-28.5 49.3c-34.7 60.2-121.5 60.2-156.2 0zM851.2 734.2c-3.2 0.3-6.5 0.5-9.8 0.5H182.6c-3.3 0-6.6-0.2-9.8-0.5-48.2-4.9-86-45.7-86-95.2v-509.9c0-52.8 42.9-95.7 95.7-95.7h658.8c52.8 0 95.7 42.9 95.7 95.7V638.9c0.1 49.5-37.6 90.4-85.8 95.3z m18.7-605.1c0-15.7-12.8-28.5-28.5-28.5H182.6c-15.7 0-28.5 12.8-28.5 28.5V424.3c65.7-31.2 141.6-53 223-64.5 43.6-6.2 88.7-9.4 134.9-9.4 52.4 0 103.5 4.2 152.5 12.1 74.7 12.1 144.4 33 205.3 61.9v-295.3z m0 370.6c-67.1-36.9-151.1-62.5-241.6-74.4-37.9-5-76.9-7.7-116.2-7.7-33.2 0-66.1 1.8-98.3 5.4-97.3 10.8-188 37.4-259.5 76.7V638.9c0 12.8 8.4 23.6 20 27.2 2.7 0.8 5.5 1.3 8.5 1.3h658.8c2.9 0 5.8-0.4 8.5-1.3 11.6-3.6 20-14.4 20-27.2v-139.2z"  horiz-adv-x="1024" />

    
    <glyph glyph-name="tongzhi" unicode="&#59003;" d="M512 97m-162 0a162 162 0 1 1 324 0 162 162 0 1 1-324 0ZM252 199.1c20.4 0 36.9 16.5 36.9 36.9V451.8C288.8 574.9 388.9 675 512 675s223.2-100.1 223.2-223.2v-215.9c0-20.4 16.5-36.9 36.9-36.9s36.9 16.5 36.9 36.9V451.8c0 151.2-113.7 276.3-260 294.5V796.1c0 20.4-16.5 36.9-36.9 36.9s-36.9-16.5-36.9-36.9v-49.8c-146.4-18.2-260-143.3-260-294.5v-215.9c-0.1-20.3 16.4-36.8 36.8-36.8zM867.5 169.4h-711c-20.4 0-36.9-16.5-36.9-36.9s16.5-36.9 36.9-36.9h711c20.4 0 36.9 16.5 36.9 36.9s-16.5 36.9-36.9 36.9z"  horiz-adv-x="1024" />

    
    <glyph glyph-name="xiaoxi" unicode="&#59004;" d="M587.3 211.9H436.7c-88.8 0-160.8 72-160.8 160.8v76.6c0 88.8 72 160.8 160.8 160.8h150.7c88.8 0 160.8-72 160.8-160.8v-76.6c0-88.8-72-160.8-160.9-160.8zM728.2 768.5H295.8C174 768.5 75.3 669.8 75.3 548v-208.6c0-121.8 98.7-220.5 220.5-220.5h63.1c0.2 0 0.4-0.3 0.3-0.5-12.6-20.1-29.8-39.5-51.4-54.8-10.4-7.3-16.7-19.5-15.4-32.1 1.7-16.3 14.5-28.8 30.3-30.6 1.8-0.2 13-1.4 30-1.4 55.5 0 173.5 21.9 234.6 119.2 0.1 0.1 0.1 0.1 0.3 0.1h140.7c121.8 0 220.5 98.7 220.5 220.5V548c-0.1 121.8-98.8 220.5-220.6 220.5z m152.1-429.2c0-84-68.1-152.1-152.1-152.1H560.4h-0.1c-10-2.2-18.7-8.8-23.4-18.3-9.5-19.5-22.6-36.3-37.5-50.1-24.7-22.9-54.6-37.8-82.4-43.9-0.3-0.1-0.5 0.2-0.3 0.5 8.3 12 15.2 27.9 20.7 43.5 3.5 9.9 6.5 19.7 8.9 28.1 4.6 16.4-3.5 33.3-18.4 40.3H295.8c-84 0-152.1 68.1-152.1 152.1V548c0 84 68.1 152.1 152.1 152.1h432.4c84 0 152.1-68.1 152.1-152.1v-208.7z"  horiz-adv-x="1024" />

    
    <glyph glyph-name="shouye" unicode="&#59005;" d="M1000.6 435.1L530.4 796.5c-11 8.1-25.9 8.1-36.9 0L23.4 435.1c-14-10.2-17.1-29.9-6.9-44 10.2-14.1 29.7-17.1 43.8-7l61.9 47.7V-3c0-17.4 14-31.5 31.3-31.5h253.1c17.3 0 31.3 14.1 31.3 31.5V293H586v-296c0-17.4 14-31.5 31.3-31.5h253.1c17.3 0 31.3 14.1 31.3 31.5V431.7l61.9-47.7c5.6-4.1 12-6 18.4-6 9.7 0 19.3 4.5 25.4 13 10.3 14.1 7.2 33.8-6.8 44.1zM839.1 28.5H648.7v296c0 17.4-14 31.5-31.3 31.5H406.6c-17.3 0-31.3-14.1-31.3-31.5v-296H184.9V480L512 732l327.1-252v-451.5zM694.8 474.6H329.2c-16.9 0-24.5 21.3-11.4 32L488 645c13.7 11.1 33.2 11.1 46.9 0.1l171.3-138.5c13.2-10.6 5.6-32-11.4-32z"  horiz-adv-x="1024" />

    
    <glyph glyph-name="fangxiang" unicode="&#59006;" d="M265.3 481.5l461.1 190.4c32.8 13.5 66.6-16.9 56.7-50.9L637.6 123.2c-10.8-37-61.5-41.4-78.5-6.8l-94.8 192.9c-4.5 9.2-12.2 16.4-21.7 20.4l-177.4 73.7c-34.7 14.5-34.7 63.7 0.1 78.1zM654.2-69.1c-14.5 0-27.9 8.2-34.4 21.4L445.2 307.6 112.7 445.7c-14.3 6-23.6 19.9-23.6 35.4s9.4 29.5 23.7 35.4L881.9 834.2c13.6 5.6 29.3 2.9 40.2-6.9 11-9.8 15.3-25.1 11.2-39.3L691-41.5a38.1 38.1 0 0 0-33.5-27.4c-1.1-0.1-2.2-0.2-3.3-0.2zM227.6 481L488 372.8c8.6-3.6 15.6-10.1 19.7-18.5l137.5-279.7 192.3 658.2L227.6 481z"  horiz-adv-x="1024" />

    
    <glyph glyph-name="fangxiang1" unicode="&#59007;" d="M512-54.8C270-54.8 73.2 142 73.2 384S270 822.8 512 822.8 950.8 626 950.8 384 754-54.8 512-54.8z m0 822.8c-211.7 0-384-172.2-384-384s172.2-384 384-384c211.7 0 384 172.2 384 384S723.7 768 512 768zM320 164.6c-7.1 0-14.1 2.8-19.4 8-8.3 8.3-10.4 20.9-5.2 31.4l126 257.9c2.7 5.5 7.1 9.9 12.6 12.6l258 126.1c10.6 5.1 23.2 3 31.4-5.3 8.3-8.3 10.4-20.9 5.2-31.4L602.5 306c-2.7-5.5-7.1-9.9-12.6-12.6L332 167.4c-3.8-1.9-7.9-2.8-12-2.8z"  horiz-adv-x="1024" />

    
    <glyph glyph-name="shezhi" unicode="&#59008;" d="M512 384m-186.3 0a186.3 186.3 0 1 1 372.6 0 186.3 186.3 0 1 1-372.6 0ZM561.7-52.7h-102c-13.9 0-25.6 10.5-27.1 24.3l-7.2 65.9c-34.7 8.7-67.5 22.4-98 40.9l-50-39.9c-10.9-8.7-26.5-7.8-36.3 2L169 112.4c-9.9 9.9-10.7 25.6-2 36.4l39.9 49.7c-19.1 31.2-33.1 64.8-41.8 100.3L99.6 306c-13.8 1.5-24.3 13.2-24.3 27.1V434.8c0 13.9 10.5 25.6 24.3 27.1l65.2 7.2c8.7 35.8 22.8 64.7 42.1 96.1l-40.3 45c-8.7 10.9-7.9 26.6 2 36.4l77.2 87.1c9.8 9.8 25.5 10.7 36.3 2l50.5-40.3c30.5 18.5 58.2 27.1 92.7 35.7l7.2 65.2c1.5 13.8 13.2 24.3 27.1 24.3h102c13.9 0 25.6-10.5 27.1-24.3l7.1-63.9c36.3-8.5 70.6-22.4 102.4-41.5l49.7 39.7c10.8 8.6 26.4 7.8 36.3-2l72.2-71.9c9.9-9.9 10.7-25.6 2-36.5l-39.3-48.8c19.7-31.9 34.1-66.4 42.9-102.8l62.3-6.8c13.8-1.5 24.3-13.2 24.3-27.1V333c0-13.9-10.5-25.6-24.3-27.1l-62.4-6.8c-8.9-36.3-23.3-70.6-43-102.5l39.6-49.1c8.7-10.9 7.9-26.6-2-36.5l-72.2-71.9c-9.9-9.8-25.6-10.6-36.3-2l-50.2 40.2c-31.7-19-65.8-32.8-101.9-41.2l-7.1-64.6c-1.5-13.8-13.2-24.2-27.1-24.2z m-77.6 54.5h53.1l6.6 60c1.3 12.1 10.5 21.8 22.4 23.9 42.6 7.4 82.3 23.5 118 47.7 9.9 6.7 23 6.2 32.4-1.3L763 95l37.5 37.4-36.6 45.6c-7.6 9.5-8.1 22.8-1.1 32.8 25.1 35.7 41.9 75.6 49.7 118.3 2.2 11.8 11.9 20.9 23.9 22.2l57.7 6.3v52.8l-57.6 6.3c-12 1.3-21.7 10.4-23.9 22.2-7.8 42.9-24.5 82.9-49.6 118.7-7 9.9-6.5 23.3 1.1 32.8l36.4 45.2L763 673l-46-36.7c-9.3-7.5-22.5-8-32.4-1.2-35.8 24.3-75.6 40.5-118.4 48-12 2.1-21.1 11.8-22.4 23.9l-6.6 59.3h-53.1l-6.7-60.3c-1.3-11.9-10.2-21.5-22-23.8-41.2-7.9-74.5-18.9-109.1-42.6-9.9-6.7-23.1-6.3-32.5 1.2L267.1 678l-42.6-52.6 37.3-41.3c7.6-9.4 8.1-22.7 1.1-32.7-24.6-35.4-40.9-69.8-48.8-112.2-2.2-11.9-11.9-20.9-23.9-22.2l-60.5-6.7v-52.8l60.6-6.7c12-1.3 21.6-10.3 23.9-22.1 7.8-42 24.1-81.2 48.5-116.4 6.9-9.9 6.4-23.2-1.2-32.6l-36.9-46 37.5-37.4 46.3 37c9.4 7.5 22.5 8 32.5 1.2 34.7-23.8 73.1-39.9 114.4-47.8 11.8-2.3 20.7-11.9 22-23.8l6.8-61.1zM512 275c-60.2 0-109.2 48.9-109.2 109s49 109 109.2 109 109.2-48.9 109.2-109-49-109-109.2-109z m0 163.4c-30.1 0-54.6-24.4-54.6-54.4s24.5-54.4 54.6-54.4 54.6 24.4 54.6 54.4-24.5 54.4-54.6 54.4z"  horiz-adv-x="1024" />

    
    <glyph glyph-name="wendang" unicode="&#59009;" d="M815.7 525.1H668.6c-38.3 0-69.4 31.1-69.4 69.4V770.8l216.5-245.7zM306.7 374.8c0-19.8 16.1-35.9 35.9-35.9H666c19.8 0 35.9 16.1 35.9 35.9s-16.1 35.9-35.9 35.9H342.6c-19.8 0.1-35.9-16-35.9-35.9zM342.6 526.6h205.3c19.8 0 35.9 16.1 35.9 35.9 0 19.8-16.1 35.9-35.9 35.9H342.6c-19.8 0-35.9-16.1-35.9-35.9 0-19.8 16.1-35.9 35.9-35.9zM666 222.3H342.6c-19.8 0-35.9-16.1-35.9-35.9s16.1-35.9 35.9-35.9H666c19.8 0 35.9 16.1 35.9 35.9s-16.1 35.9-35.9 35.9zM644.7 812.6H270.4c-56.4 0-102.3-45.9-102.3-102.3v-652.6c0-56.4 45.9-102.3 102.3-102.3h483.2c56.4 0 102.3 45.9 102.3 102.3V576.3L644.7 812.6zM784 57.7c0-16.8-13.6-30.4-30.4-30.4H270.4c-16.8 0-30.4 13.6-30.4 30.4V710.3c0 16.8 13.7 30.4 30.4 30.4h342.1L784 548.8v-491.1z"  horiz-adv-x="1024" />

    
    <glyph glyph-name="weizhi" unicode="&#59010;" d="M512 45.4c57.7 0 347.2 177.3 347.2 428.2C859.2 665 703.5 820.7 512 820.7S164.8 665 164.8 473.5c0-250.8 289.5-428.1 347.2-428.1z m0 699.4c149.6 0 271.3-121.7 271.3-271.3 0-196.3-223.1-335.1-271.3-351.4-48.2 16.3-271.3 155.1-271.3 351.4 0 149.6 121.7 271.3 271.3 271.3zM796.8 23.2H227.2c-21 0-38-17-38-38s17-38 38-38h569.7c21 0 38 17 38 38-0.1 21-17.1 38-38.1 38zM512 464m-166.8 0a166.8 166.8 0 1 1 333.6 0 166.8 166.8 0 1 1-333.6 0Z"  horiz-adv-x="1024" />

    
    <glyph glyph-name="yuncunchu" unicode="&#59011;" d="M678.4 480.3m-169.6 0a169.6 169.6 0 1 1 339.2 0 169.6 169.6 0 1 1-339.2 0ZM777.8 453.2c-4.4 0-8.8-0.2-13.2-0.5-9.9 125.4-115.1 224.5-243.1 224.5-116.8 0-216-83.3-238.8-194.8-7.1 0.8-14.2 1.2-21.3 1.2C153.1 483.6 65 395.5 65 287.2s88.1-196.4 196.4-196.4h516.4c99.9 0 181.2 81.3 181.2 181.2s-81.3 181.2-181.2 181.2z m0-303.8H261.4c-76 0-137.7 61.8-137.7 137.8S185.5 425 261.4 425c12.8 0 25.6-1.8 38-5.4 8.5-2.4 17.7-0.9 24.9 4.2 7.2 5.1 11.8 13.2 12.4 22 6.4 96.9 87.6 172.8 184.7 172.8 102.1 0 185.2-83.1 185.2-185.2 0-4-0.2-8.2-0.5-13.4-0.7-9.6 3.3-18.9 10.8-24.9 7.5-6 17.4-8 26.6-5.4 11.2 3.2 22.7 4.9 34.2 4.9 67.6 0 122.6-55 122.6-122.6s-54.9-122.6-122.5-122.6zM636.2 312.5c-12.6 10.2-31 8.3-41.2-4.3-26.2-32.2-53.7-48.6-81.8-48.7h-0.3c-49.1 0-89.4 47.8-90.2 48.8-10.2 12.5-28.6 14.4-41.2 4.2-12.6-10.2-14.5-28.7-4.3-41.2 2.3-2.9 58.1-70.4 135.6-70.4 46.7 0 89.6 23.7 127.6 70.4 10.3 12.6 8.4 31-4.2 41.2z"  horiz-adv-x="1024" />

    
    <glyph glyph-name="me" unicode="&#59012;" d="M651 348.79999999999995h-49.6c-86 0-155.7 69.7-155.7 155.7v88.6c0 93 75.4 168.4 168.4 168.4h21.1c93.8 0 169.8-76 169.8-169.8v-88.9c0-85.1-68.9-154-154-154zM512 746.7c36.6 0 71-14.2 96.9-40.1 25.9-25.9 40.1-60.3 40.1-96.9v-88.5c0-36.6-14.2-71-40.1-96.9-25.9-25.9-60.3-40.1-96.9-40.1-36.6 0-71 14.2-96.9 40.1-25.9 25.9-40.1 60.3-40.1 96.9v88.5c0 36.6 14.2 71 40.1 96.9 25.9 25.8 60.3 40.1 96.9 40.1m0 67.9c-113.2 0-204.9-91.7-204.9-204.9v-88.5c0-113.2 91.7-204.9 204.9-204.9S716.9 408 716.9 521.2v88.5c0 113.2-91.7 204.9-204.9 204.9zM730.4 197.60000000000002c23.6 0 46-9.3 62.9-26.2s26.2-39.3 26.2-62.9v-74c0-7.1-6-13.1-13.1-13.1H217.6c-7.1 0-13.1 6-13.1 13.1v74c0 23.6 9.3 46 26.2 62.9s39.3 26.2 62.9 26.2h436.8m0 67.9H293.6c-86.4 0-157.1-70.7-157.1-157.1v-74c0-44.6 36.5-81.1 81.1-81.1h588.8c44.6 0 81.1 36.5 81.1 81.1v74c0 86.5-70.7 157.1-157.1 157.1z"  horiz-adv-x="1024" />

    
    <glyph glyph-name="WeChat" unicode="&#58971;" d="M512-128C229.230021-128 0 101.230021 0 384S229.230021 896 512 896s512-229.230021 512-512-229.230021-512-512-512z m304.000268 438.26556c0 84.342608-84.233124 153.023597-178.992838 153.023597-100.396008 0-179.233275-68.68099-179.233275-153.023597 0-84.558356 78.837266-152.99891 179.232201-152.99891 21.002734 0 42.24483 5.363656 63.232537 10.486876l57.861367-31.75366-15.832285 52.778935c42.216922 31.766541 73.732294 74.045719 73.732293 121.486759z m-237.133283 26.401811c-10.475069 0-20.975899 10.499757-20.975899 21.038155 0 10.475069 10.50083 21.000587 20.975899 21.000587 15.884881 0 26.397518-10.525518 26.397518-21.000587 0-10.538398-10.512637-21.038155-26.397518-21.038155z m116.014692 0c-10.48795 0-20.963019 10.499757-20.963019 21.038155 0 10.475069 10.475069 21.000587 20.963019 21.000587 15.858046 0 26.371757-10.525518 26.371757-21.000587 0-10.538398-10.765954-21.038155-26.37283-21.038155z m-75.265073 145.263094c6.901803 0 13.831514-0.481945 20.722583-1.191446-18.569392 86.866113-111.265006 151.260042-217.120202 151.260042-118.217258 0-215.219254-80.63839-215.219253-183.229451 0-59.183765 32.186231-107.842013 86.044981-145.555052l-21.444965-64.876948 75.303715 37.916981c26.928839-5.238071 48.614239-10.741266 75.315522-10.741266 6.663514 0 13.363522 0.240436 20.039916 0.925249-4.294574 14.34244-6.676394 29.572562-6.676394 45.107522-0.012881 94.030893 80.80047 170.384369 183.033023 170.384369zM503.767212 540.390776c16.200453 0 26.915958-10.741266 26.915958-26.972847 0-16.206893-10.728386-26.947086-26.917032-26.947086-16.213333 0-32.400906 10.740193-32.400905 26.947086 0.240436 16.244461 16.416201 26.97392 32.400905 26.97392z m-150.620311-53.894172c-16.213333 0-32.400906 10.727312-32.400905 26.947086 0 16.231581 16.200453 26.959966 32.400905 26.959966 16.226214 0 26.9546-10.741266 26.9546-26.959966-0.011807-15.991145-10.728386-26.948159-26.9546-26.94816z"  horiz-adv-x="1024" />

    
    <glyph glyph-name="tongyongtubiao-kuozhan-" unicode="&#58884;" d="M512 47.7184c-262.3488 0-467.5584 306.5856-476.16 319.488-6.7584 10.24-6.7584 23.552 0 33.792 8.6016 13.1072 213.8112 319.488 476.16 319.488s467.5584-306.5856 476.16-319.488c6.7584-10.24 6.7584-23.552 0-33.792-8.6016-12.9024-213.8112-319.488-476.16-319.488zM99.1232 384.2048C144.7936 321.9456 315.392 109.1584 512 109.1584s367.2064 212.7872 412.8768 275.0464C879.2064 446.464 708.608 659.2512 512 659.2512S144.7936 446.464 99.1232 384.2048zM512 251.0848c-73.3184 0-133.12 59.8016-133.12 133.12s59.8016 133.12 133.12 133.12 133.12-59.8016 133.12-133.12-59.8016-133.12-133.12-133.12z m0 204.8c-39.5264 0-71.68-32.1536-71.68-71.68s32.1536-71.68 71.68-71.68 71.68 32.1536 71.68 71.68-32.1536 71.68-71.68 71.68z"  horiz-adv-x="1024" />

    
    <glyph glyph-name="dingwei-" unicode="&#58888;" d="M512 312.32c-73.3184 0-133.12 59.8016-133.12 133.12s59.8016 133.12 133.12 133.12 133.12-59.8016 133.12-133.12-59.8016-133.12-133.12-133.12z m0 204.8c-39.5264 0-71.68-32.1536-71.68-71.68s32.1536-71.68 71.68-71.68 71.68 32.1536 71.68 71.68-32.1536 71.68-71.68 71.68zM512-46.08c-5.7344 0-11.6736 1.6384-16.5888 4.9152-13.5168 8.8064-330.9568 216.6784-341.8112 495.616-3.4816 91.9552 30.5152 180.0192 95.8464 248.0128C317.6448 773.3248 413.4912 814.08 512 814.08c192.512 0 350.0032-156.8768 358.4-357.1712 10.8544-260.096-326.8608-488.2432-341.4016-497.8688-5.12-3.4816-11.0592-5.12-16.9984-5.12z m0 798.72c-81.92 0-161.5872-33.792-218.3168-92.7744-53.6576-55.7056-81.7152-127.7952-78.6432-202.9568 8.192-213.1968 232.6528-388.9152 296.7552-434.7904C578.1504 70.656 817.152 259.072 808.96 454.4512 801.9968 621.568 671.5392 752.64 512 752.64z"  horiz-adv-x="1024" />

    
    <glyph glyph-name="geren-" unicode="&#58890;" d="M870.4-38.0928c-16.9984 0-30.72 13.7216-30.72 30.72 0 174.8992-142.336 317.2352-317.2352 317.2352h-20.8896C326.656 309.8624 184.32 167.5264 184.32-7.3728c0-16.9984-13.7216-30.72-30.72-30.72S122.88-24.3712 122.88-7.3728c0 208.896 169.984 378.6752 378.6752 378.6752h20.8896c208.896 0 378.6752-169.984 378.6752-378.6752 0-16.9984-13.7216-30.72-30.72-30.72zM512 309.6576c-136.8064 0-248.2176 111.4112-248.2176 248.2176S375.1936 806.0928 512 806.0928s248.2176-111.4112 248.2176-248.2176S648.8064 309.6576 512 309.6576z m0 434.9952c-103.0144 0-186.7776-83.7632-186.7776-186.7776 0-103.0144 83.7632-186.7776 186.7776-186.7776s186.7776 83.7632 186.7776 186.7776c0 103.0144-83.7632 186.7776-186.7776 186.7776zM512 418.4064c-33.792 0-66.3552 12.288-91.7504 34.4064a26.58304 26.58304 0 0 0 34.816 40.1408c32.5632-28.4672 85.4016-27.2384 116.5312 2.8672 10.6496 10.24 27.4432 9.8304 37.6832-0.6144 10.24-10.6496 9.8304-27.4432-0.6144-37.6832A138.40384 138.40384 0 0 0 512 418.4064z"  horiz-adv-x="1024" />

    
    <glyph glyph-name="guanzhu-" unicode="&#58891;" d="M514.048 34.4064c-18.432 0-36.6592 6.9632-50.5856 20.8896L193.9456 324.608c-1.024 1.024-2.048 2.2528-3.072 3.4816-87.6544 94.4128-85.1968 243.9168 6.144 335.2576 85.8112 85.8112 223.0272 93.184 317.44 21.0944 45.2608 33.1776 99.9424 49.5616 157.0816 46.08 65.9456-3.8912 126.1568-33.792 169.3696-84.3776 81.3056-95.0272 73.3184-241.0496-18.0224-332.5952L564.6336 55.296a71.4752 71.4752 0 0 0-50.5856-20.8896zM240.0256 365.568l0.4096-0.4096 266.4448-266.4448c4.096-3.8912 10.4448-3.8912 14.5408 0l258.2528 258.2528c68.8128 68.8128 75.3664 178.3808 14.7456 249.2416-32.3584 37.6832-77.2096 60.2112-126.3616 63.0784-49.5616 2.8672-96.6656-13.9264-132.9152-47.5136-11.8784-11.0592-30.5152-10.8544-42.1888 0.4096-70.2464 67.584-183.5008 66.56-252.3136-2.2528-68.8128-68.8128-69.8368-181.8624-2.4576-252.1088 0.4096-0.6144 1.2288-1.4336 1.8432-2.2528zM771.072 419.2256h-0.6144c-14.7456 0.2048-26.4192 12.4928-26.0096 27.2384 0.6144 31.3344-10.0352 62.0544-30.1056 86.2208a131.15392 131.15392 0 0 1-75.9808 45.2608c-14.5408 2.8672-23.9616 16.7936-21.0944 31.1296 2.8672 14.336 16.5888 23.7568 31.1296 21.0944A184.32 184.32 0 0 0 797.4912 445.44c0-14.7456-11.8784-26.2144-26.4192-26.2144z"  horiz-adv-x="1024" />

    
    <glyph glyph-name="shengyin-" unicode="&#58892;" d="M598.8352 51.4048c-4.096 0-8.192 0.8192-11.8784 2.4576l-219.3408 92.7744a72.0896 72.0896 0 0 1-27.8528 5.7344h-75.1616c-37.4784 0-67.9936 30.5152-67.9936 67.9936V549.4784c0 37.4784 30.5152 67.9936 67.9936 67.9936h75.1616c9.6256 0 19.0464 1.8432 27.8528 5.7344l205.4144 86.8352c26.8288 11.264 56.32 7.5776 77.2096-9.6256 15.36-12.9024 24.1664-30.9248 24.1664-49.9712v-531.0464c-0.2048-37.4784-33.9968-67.9936-75.5712-67.9936zM264.6016 556.032c-3.4816 0-6.5536-2.8672-6.5536-6.5536v-329.1136c0-3.4816 2.8672-6.5536 6.5536-6.5536h75.1616c18.0224 0 35.4304-3.4816 52.0192-10.4448l212.1728-89.9072c5.9392 1.2288 9.0112 4.7104 9.0112 5.9392V650.4448c0 0.4096-0.6144 1.4336-2.048 2.6624-2.8672 2.4576-8.8064 2.4576-13.9264 0.4096l-205.2096-86.8352c-16.384-6.9632-33.9968-10.4448-51.8144-10.4448h-75.3664zM738.304 171.4176a26.5216 26.5216 0 0 0-18.0224 46.08c32.768 30.5152 54.0672 95.8464 54.0672 166.5024s-21.2992 135.7824-54.0672 166.5024c-10.8544 10.0352-11.264 26.8288-1.4336 37.6832 10.0352 10.8544 26.8288 11.264 37.6832 1.4336 43.8272-40.7552 71.0656-119.3984 71.0656-205.4144 0-85.8112-27.2384-164.6592-71.0656-205.4144-5.3248-4.9152-11.8784-7.3728-18.2272-7.3728z"  horiz-adv-x="1024" />

    
    <glyph glyph-name="shouye-" unicode="&#58893;" d="M839.68 381.3376c-8.192 0-16.384 3.2768-22.528 9.8304L547.0208 680.7552c-19.0464 20.48-51.2 20.48-70.2464 0L206.848 391.168c-11.6736-12.4928-31.1296-13.1072-43.4176-1.4336-12.4928 11.6736-13.1072 30.9248-1.4336 43.4176L431.9232 722.7392c21.2992 22.7328 49.5616 35.2256 80.0768 35.2256s58.7776-12.4928 80.0768-35.2256L862.208 433.152a30.72 30.72 0 0 0-1.4336-43.4176c-6.144-5.5296-13.5168-8.3968-21.0944-8.3968zM627.712 14.1312h-231.424c-14.7456 0-26.624 11.8784-26.624 26.624v201.5232c0 46.6944 37.888 84.5824 84.5824 84.5824h115.3024c46.6944 0 84.5824-37.888 84.5824-84.5824v-201.5232c0.2048-14.7456-11.6736-26.624-26.4192-26.624z m-204.8 53.248h178.176v174.8992c0 17.2032-14.1312 31.3344-31.3344 31.3344h-115.3024c-17.2032 0-31.3344-14.1312-31.3344-31.3344v-174.8992zM706.7648 10.0352H317.2352c-61.8496 0-112.2304 52.8384-112.2304 117.9648V462.2336c0 16.9984 13.7216 30.72 30.72 30.72s30.72-13.7216 30.72-30.72V128c0-31.1296 22.7328-56.5248 50.7904-56.5248H706.56c28.0576 0 50.7904 25.3952 50.7904 56.5248V462.2336c0 16.9984 13.7216 30.72 30.72 30.72s30.72-13.7216 30.72-30.72V128c0-65.1264-50.176-117.9648-112.0256-117.9648z"  horiz-adv-x="1024" />

    
    <glyph glyph-name="wenjian-" unicode="&#58894;" d="M796.4672 63.6928H227.5328c-40.7552 0-73.9328 33.1776-73.9328 73.9328V627.9168a76.3904 76.3904 0 0 0 76.3904 76.3904h137.216c6.3488 0 12.6976-2.048 17.8176-5.7344l98.7136-70.4512h312.7296c40.7552 0 73.9328-33.1776 73.9328-73.9328v-416.3584c0-40.96-33.1776-74.1376-73.9328-74.1376zM229.9904 642.8672c-8.192 0-14.9504-6.7584-14.9504-14.9504v-490.0864c0-6.9632 5.7344-12.4928 12.4928-12.4928h568.7296c6.9632 0 12.4928 5.7344 12.4928 12.4928V553.984c0 6.9632-5.7344 12.4928-12.4928 12.4928H473.9072c-6.3488 0-12.6976 2.048-17.8176 5.7344l-98.7136 70.4512h-127.3856zM794.0096 414.3104H504.4224c-16.9984 0-30.72 13.7216-30.72 30.72s13.7216 30.72 30.72 30.72h289.5872c16.9984 0 30.72-13.7216 30.72-30.72s-13.7216-30.72-30.72-30.72z"  horiz-adv-x="1024" />

    
    <glyph glyph-name="xiaoxilingdang-" unicode="&#58898;" d="M767.1808 110.79679999999996H256.8192c-4.5056 0-8.8064 0.2048-12.9024 0.8192C176.7424 117.14559999999994 122.88 175.5136 122.88 244.5312v10.6496c0 59.1872 39.7312 110.7968 94.4128 127.7952v88.6784c0 162.6112 132.3008 294.7072 294.7072 294.7072 78.2336 0 152.1664-30.72 208.2816-86.4256 55.9104-56.1152 86.6304-130.048 86.6304-208.2816v-88.6784c54.4768-16.9984 94.208-68.608 94.208-127.7952v-10.6496c0-69.0176-53.8624-127.5904-122.4704-133.3248-2.6624-0.2048-6.9632-0.4096-11.4688-0.4096zM512 704.9216c-128.6144 0-233.2672-104.6528-233.2672-233.2672v-113.664c0-15.9744-12.288-29.2864-28.2624-30.72-37.0688-3.072-66.1504-34.816-66.1504-72.0896v-10.6496c0-37.2736 29.0816-69.0176 66.1504-72.0896 3.072-0.4096 4.7104-0.4096 6.3488-0.4096h510.3616c1.6384 0 3.2768 0 4.7104 0.2048 38.7072 3.2768 67.7888 34.816 67.7888 72.0896v10.6496c0 37.2736-29.0816 69.0176-66.1504 72.0896-15.9744 1.2288-28.2624 14.5408-28.2624 30.72v113.664c0 61.8496-24.3712 120.4224-68.608 164.864-44.2368 44.2368-102.8096 68.608-164.6592 68.608zM514.8672 1.638400000000047h-5.5296c-59.8016 0-116.736 19.456-156.0576 53.6576a26.58304 26.58304 0 0 0 34.816 40.1408c29.9008-25.8048 74.1376-40.7552 121.2416-40.7552h5.5296c47.104 0 91.3408 14.7456 121.2416 40.5504a26.58304 26.58304 0 0 0 34.816-40.1408c-39.5264-33.9968-96.4608-53.4528-156.0576-53.4528z"  horiz-adv-x="1024" />

    
    <glyph glyph-name="zhuanfa-" unicode="&#58899;" d="M550.912 5.12c-4.096 0-7.9872 0.8192-11.8784 2.4576-11.4688 4.7104-18.8416 15.9744-18.8416 28.2624v156.672c-96.256 68.1984-309.0432-65.536-385.4336-125.1328-10.4448-7.9872-24.576-8.6016-35.6352-1.6384-11.0592 7.168-16.1792 20.48-13.1072 33.1776 99.1232 401.408 347.3408 475.9552 433.9712 489.6768V732.16c0 12.288 7.3728 23.552 18.8416 28.2624 11.4688 4.9152 24.576 2.2528 33.3824-6.3488l357.1712-348.16c5.9392-5.7344 9.216-13.7216 9.216-21.9136s-3.2768-16.1792-9.216-21.9136l-357.1712-348.16c-5.7344-5.7344-13.5168-8.8064-21.2992-8.8064z m-96.8704 267.0592c44.032 0 84.992-12.0832 117.76-43.008 6.144-5.7344 9.6256-13.9264 9.6256-22.3232v-98.304L864.0512 384 581.632 659.2512v-98.304c0-16.7936-13.312-30.3104-30.1056-30.72-11.264-0.4096-261.5296-12.0832-381.7472-364.1344 72.2944 45.8752 185.9584 106.0864 284.2624 106.0864zM343.2448 316.2112c-5.9392 0-11.8784 2.048-16.7936 5.9392a26.8288 26.8288 0 0 0-3.6864 37.4784c44.4416 54.272 95.0272 93.3888 150.3232 116.5312 13.7216 5.7344 29.0816-0.8192 34.816-14.336 5.7344-13.5168-0.6144-29.0816-14.336-34.816-47.104-19.6608-90.7264-53.8624-129.6384-101.1712-5.3248-6.3488-12.9024-9.6256-20.6848-9.6256z"  horiz-adv-x="1024" />

    
    <glyph glyph-name="xingbiao-" unicode="&#58900;" d="M492.544 232.2432c-6.7584 0-13.7216 2.6624-18.8416 7.7824l-113.0496 113.0496c-5.9392 4.9152-9.6256 12.0832-9.6256 20.2752 0 14.7456 11.6736 26.624 26.4192 26.624h0.6144c6.9632 0 13.9264-2.8672 18.8416-7.7824l114.4832-114.4832a26.58304 26.58304 0 0 0-18.8416-45.4656zM312.7296-13.312c-9.4208 0-18.8416 3.072-26.8288 9.0112-13.5168 9.8304-20.2752 27.2384-16.9984 44.032l37.888 221.5936-161.3824 157.696c-11.8784 11.4688-16.384 29.4912-11.264 45.4656 5.12 15.9744 19.2512 27.8528 35.84 30.3104l222.8224 31.9488 100.5568 202.3424c7.3728 14.9504 22.528 24.576 39.3216 24.7808h0.2048c16.7936 0 32.5632-9.6256 39.936-24.7808l99.7376-202.3424 223.232-32.3584c15.9744-1.4336 30.9248-13.1072 36.4544-29.9008 5.12-16.5888 0.8192-33.5872-10.8544-45.056l-121.856-118.5792c-12.0832-11.8784-31.5392-11.6736-43.4176 0.6144a30.72 30.72 0 0 0 0.6144 43.4176l96.4608 93.7984-205.2096 29.696c-10.0352 1.4336-18.6368 7.7824-23.1424 16.7936L533.0944 670.72l-92.3648-185.9584c-4.5056-9.0112-13.1072-15.36-23.1424-16.7936l-204.3904-29.2864 148.0704-144.7936c7.168-6.9632 10.4448-17.2032 8.8064-27.2384l-35.0208-204.8 183.7056 96.6656c9.0112 4.7104 19.6608 4.7104 28.672 0l181.0432-95.0272-69.4272 283.8528c-4.096 16.384 6.144 33.1776 22.528 37.0688 16.5888 4.096 33.1776-6.144 37.0688-22.528l78.4384-320.3072c3.2768-13.312 0.2048-27.648-8.6016-38.5024-8.6016-10.6496-21.7088-17.2032-35.6352-16.384-6.144 0.2048-13.1072 1.6384-19.456 4.9152l-200.0896 105.0624-199.68-105.0624c-6.5536-3.2768-13.7216-4.9152-20.8896-4.9152zM737.28 27.2384c0-0.2048 0-0.2048 0 0z m-407.7568 2.048l-0.2048-0.6144c0.2048 0.2048 0.2048 0.4096 0.2048 0.6144z m-24.576 16.9984c-0.2048 0-0.2048-0.2048-0.4096-0.2048l0.4096 0.2048z m582.0416 387.2768c0.6144-0.2048 1.2288-0.2048 1.8432-0.2048l-1.8432 0.2048zM188.416 463.2576c0-0.2048 0-0.2048 0 0zM548.4544 701.8496z m-30.72 0zM676.0448 637.3376c-7.7824 0-15.7696 3.072-21.7088 9.0112a30.5152 30.5152 0 0 0 0 43.4176l82.5344 82.5344c12.0832 12.0832 31.5392 12.0832 43.4176 0s12.0832-31.5392 0-43.4176l-82.5344-82.5344c-5.9392-6.144-13.7216-9.0112-21.7088-9.0112zM120.2176 99.9424c-7.7824 0-15.7696 3.072-21.7088 9.0112a30.5152 30.5152 0 0 0 0 43.4176l121.0368 121.0368c12.0832 12.0832 31.5392 12.0832 43.4176 0s12.0832-31.5392 0-43.4176l-121.0368-121.0368c-5.9392-5.9392-13.9264-9.0112-21.7088-9.0112zM709.2224 539.8528c-7.7824 0-15.7696 3.072-21.7088 9.0112a30.5152 30.5152 0 0 0 0 43.4176l73.728 74.1376a30.5152 30.5152 0 0 0 43.4176 0c12.0832-11.8784 12.0832-31.3344 0-43.4176l-73.728-74.1376c-5.9392-6.144-13.7216-9.0112-21.7088-9.0112z"  horiz-adv-x="1024" />

    


  </font>
</defs>
</svg>
